<svg width="41" height="49" viewBox="0 0 41 49" fill="none" xmlns="http://www.w3.org/2000/svg">
<path d="M40.4679 0.952677L34.0017 0.0100297C33.8104 -0.0276762 33.6191 0.0477309 33.5426 0.123143L30.7878 3.66749C30.5965 3.89373 30.5582 4.19538 30.6347 4.45932C30.7113 4.72326 30.4817 4.9495 30.2139 4.91179L27.9564 4.42161C27.6121 4.3462 27.2295 4.45933 26.9999 4.76097L18.0468 16.0727C17.8937 16.299 17.5876 16.3744 17.3198 16.2613L13.9145 14.753C13.6084 14.6022 13.2641 14.6399 12.9963 14.8284L11.2745 15.9973C11.0067 16.1859 10.624 16.2236 10.318 16.0727L9.47621 15.658C8.94055 15.394 8.29011 15.6957 8.13706 16.2613L7.52488 18.9384C7.37183 19.5794 7.63966 20.2204 8.21358 20.5597L9.51447 21.3516L13.685 23.8778L15.7128 25.1221C16.2867 25.4615 17.0137 25.3861 17.5111 24.9713L20.9164 22.0303C21.1842 21.804 21.6051 21.7286 21.9112 21.9171L22.9442 22.445C23.2886 22.6336 23.7094 22.5581 23.9773 22.2942L25.699 20.7106C25.9669 20.4466 26.3877 20.4089 26.6938 20.5597L29.2573 21.7286C29.6399 21.9171 30.0991 21.804 30.3669 21.4647L31.553 19.9564L40.5444 8.60697C40.9653 8.07908 40.6975 7.28726 40.0088 7.13644L38.0192 6.68396C37.5983 6.60855 37.407 6.08067 37.7131 5.77902L40.8123 1.97073C41.1184 1.51826 40.927 1.02809 40.4679 0.952677Z" fill="#8257E6"></path>
<path d="M10.8146 23.8025C10.6233 23.6893 10.432 23.8779 10.5085 24.0664L11.465 26.555C11.5415 26.7435 11.5415 26.932 11.5033 27.1206L10.6615 30.3633C10.6233 30.5895 10.6998 30.8157 10.8528 30.9289L13.2633 32.7765C13.4929 32.9273 13.799 32.9273 13.9903 32.7388L16.5155 30.5518C16.6686 30.4387 16.8599 30.3633 17.0129 30.3256L19.8825 30.0239C20.0738 29.9862 20.1503 29.7223 19.959 29.6092L10.8146 23.8025Z" fill="#8257E6"></path>
<path d="M9.97321 32.1732C9.82017 32.0601 9.5906 32.0224 9.39929 32.0978L7.37144 33.0782C7.25666 33.1159 7.18013 33.229 7.10361 33.3421L2.78008 43.8621C2.78008 43.8998 2.78008 43.8998 2.78008 43.9375C2.81834 43.9752 2.8566 44.0129 2.93312 44.0129L3.92792 43.6358C3.96618 43.6358 4.00444 43.6358 4.0427 43.6358C4.08096 43.6735 4.11923 43.7489 4.08096 43.7866L0.981793 48.8015C0.90527 48.9146 1.05832 49.0278 1.13484 48.9146L12.3454 37.8291C12.4602 37.716 12.4985 37.6029 12.5367 37.4521L12.7663 34.5864C12.7663 34.3979 12.6898 34.247 12.575 34.1339L9.97321 32.1732Z" fill="#8257E6"></path>
</svg>