
<svg width="252" height="25" viewBox="0 0 252 25" fill="none" xmlns="http://www.w3.org/2000/svg">
<path d="M163.379 12.387C163.465 13.7679 163.089 15.1381 162.31 16.2813C161.963 16.7432 161.508 17.1129 160.985 17.3578C160.462 17.6027 159.886 17.7153 159.309 17.6858C158.787 17.7 158.27 17.5894 157.799 17.3631C157.329 17.1369 156.919 16.8016 156.604 16.3851L156.484 17.4943H153.979V2.76287H156.764V8.06173C157.074 7.69628 157.462 7.40536 157.9 7.21057C158.338 7.01578 158.814 6.92209 159.293 6.93649C159.866 6.91215 160.437 7.02639 160.957 7.2695C161.476 7.51262 161.929 7.87742 162.278 8.33303C163.063 9.49179 163.442 10.8782 163.355 12.2752L163.379 12.387ZM160.602 12.1875C160.662 11.3862 160.487 10.5847 160.099 9.88119C159.936 9.64221 159.713 9.44969 159.453 9.32242C159.193 9.19515 158.904 9.13749 158.615 9.15501C158.235 9.12277 157.855 9.21003 157.527 9.40464C157.2 9.59924 156.941 9.89144 156.788 10.2403V14.3501C156.944 14.701 157.205 14.9947 157.535 15.1906C157.865 15.3865 158.248 15.4748 158.631 15.4434C159.035 15.4655 159.433 15.3449 159.757 15.1027C160.081 14.8605 160.31 14.5122 160.403 14.1187C160.561 13.4877 160.628 12.8374 160.602 12.1875Z" fill="url(#paint0_linear_13988_11638)"/>
<path d="M167.633 17.4943H164.84V2.76287H167.633V17.4943Z" fill="url(#paint1_linear_13988_11638)"/>
<path d="M175.557 17.4939C175.416 17.1991 175.322 16.8841 175.278 16.5602C174.949 16.9287 174.544 17.2205 174.09 17.415C173.636 17.6094 173.146 17.7018 172.652 17.6854C171.725 17.7192 170.819 17.403 170.115 16.7996C169.791 16.5255 169.533 16.1826 169.359 15.796C169.185 15.4095 169.1 14.9889 169.109 14.5652C169.086 14.0732 169.186 13.5834 169.401 13.1401C169.616 12.6969 169.938 12.3144 170.338 12.0275C171.398 11.3709 172.636 11.0587 173.881 11.1337H175.158V10.5352C175.18 10.1201 175.05 9.7113 174.791 9.38601C174.64 9.23295 174.458 9.11497 174.256 9.04048C174.055 8.966 173.84 8.93686 173.626 8.9551C173.23 8.93117 172.84 9.0501 172.525 9.29025C172.391 9.4033 172.286 9.54572 172.216 9.70631C172.147 9.86691 172.116 10.0414 172.126 10.216H169.34C169.342 9.61193 169.538 9.02439 169.899 8.54011C170.311 7.99966 170.863 7.58278 171.495 7.3351C172.22 7.03224 173 6.8828 173.785 6.8962C174.885 6.83557 175.969 7.17899 176.834 7.86182C177.214 8.20005 177.514 8.61955 177.71 9.08924C177.906 9.55893 177.994 10.0668 177.967 10.5751V15.0839C177.925 15.8537 178.068 16.6224 178.382 17.3263V17.4939H175.557ZM173.259 15.5308C173.653 15.535 174.042 15.4418 174.392 15.2594C174.726 15.1002 175.004 14.8445 175.19 14.5253V12.7377H174.152C172.764 12.7377 172.022 13.2165 171.934 14.1821V14.3417C171.929 14.5015 171.959 14.6603 172.021 14.8076C172.083 14.9549 172.176 15.0873 172.293 15.1956C172.563 15.4213 172.907 15.5405 173.259 15.5308Z" fill="url(#paint2_linear_13988_11638)"/>
<path d="M184.048 15.4429C184.503 15.4602 184.949 15.3097 185.301 15.0199C185.46 14.8796 185.587 14.7062 185.672 14.5119C185.758 14.3176 185.8 14.107 185.795 13.8947H188.405C188.401 14.5826 188.202 15.2552 187.83 15.8339C187.432 16.4255 186.881 16.8974 186.234 17.1986C185.555 17.526 184.81 17.6926 184.056 17.6853C183.401 17.7164 182.748 17.6056 182.141 17.3604C181.533 17.1152 180.986 16.7415 180.537 16.2648C179.625 15.1672 179.168 13.7624 179.26 12.3386V12.1551C179.191 10.761 179.646 9.39163 180.537 8.31659C180.982 7.83613 181.527 7.45916 182.134 7.21235C182.74 6.96553 183.394 6.85485 184.048 6.8881C185.196 6.83241 186.32 7.2309 187.176 7.99736C187.568 8.3809 187.876 8.84103 188.082 9.34904C188.288 9.85705 188.387 10.4021 188.373 10.95H185.764C185.772 10.4641 185.595 9.99314 185.269 9.63329C185.104 9.46597 184.906 9.33487 184.687 9.24831C184.469 9.16175 184.235 9.12162 184 9.13054C183.716 9.11242 183.431 9.16746 183.174 9.29039C182.917 9.41333 182.696 9.60007 182.532 9.8328C182.144 10.5334 181.972 11.333 182.037 12.1311V12.4184C181.972 13.2207 182.141 14.0246 182.524 14.7327C182.694 14.9736 182.924 15.166 183.191 15.2905C183.459 15.4151 183.754 15.4677 184.048 15.4429Z" fill="url(#paint3_linear_13988_11638)"/>
<path d="M193.345 13.3207L192.34 14.3182V17.5103H189.562V2.76287H192.34V10.9027L192.882 10.2164L195.548 7.08812H198.883L195.125 11.4214L199.211 17.4943H196.018L193.345 13.3207Z" fill="url(#paint4_linear_13988_11638)"/>
<path d="M204.956 17.4939V9.1466H203.408V7.11166H204.956V6.22587C204.925 5.72851 204.999 5.2302 205.172 4.76295C205.345 4.29569 205.614 3.86979 205.961 3.51258C206.344 3.16946 206.79 2.90539 207.275 2.73556C207.76 2.56573 208.274 2.4935 208.786 2.52305C209.263 2.5352 209.737 2.59942 210.199 2.71456V4.86923C209.922 4.80293 209.638 4.77342 209.353 4.78146C208.308 4.78146 207.757 5.26822 207.757 6.24979V7.0478H209.824V9.1466H207.749V17.5178L204.956 17.4939Z" fill="url(#paint5_linear_13988_11638)"/>
<path d="M216.711 9.69782C216.378 9.64685 216.042 9.6202 215.706 9.61804C215.293 9.56359 214.874 9.63691 214.504 9.82811C214.135 10.0193 213.833 10.3192 213.639 10.6874V17.4945H210.862V7.12023H213.487L213.575 8.34917C213.789 7.919 214.119 7.55729 214.528 7.30488C214.937 7.05247 215.409 6.91943 215.889 6.92073C216.184 6.9171 216.478 6.96018 216.759 7.04839L216.711 9.69782Z" fill="url(#paint6_linear_13988_11638)"/>
<path d="M217.629 4.39898C217.622 4.20724 217.657 4.01635 217.73 3.8389C217.803 3.66145 217.912 3.50149 218.052 3.36955C218.364 3.08917 218.774 2.94296 219.193 2.96256C219.609 2.94507 220.016 3.09115 220.326 3.36955C220.462 3.50519 220.57 3.66629 220.643 3.84362C220.717 4.02095 220.755 4.21101 220.755 4.40298C220.755 4.59494 220.717 4.78505 220.643 4.96238C220.57 5.13971 220.462 5.30076 220.326 5.4364C220.006 5.69489 219.608 5.83594 219.197 5.83594C218.786 5.83594 218.387 5.69489 218.068 5.4364C217.924 5.305 217.811 5.14438 217.735 4.9654C217.66 4.78641 217.623 4.59325 217.629 4.39898ZM220.581 17.4945H217.796V7.12026H220.581V17.4945Z" fill="url(#paint7_linear_13988_11638)"/>
<path d="M222.05 12.2114C221.982 10.8379 222.369 9.48046 223.151 8.349C223.492 7.88258 223.943 7.507 224.463 7.25518C224.984 7.00337 225.558 6.88299 226.136 6.90459C226.613 6.89357 227.086 6.98967 227.521 7.18578C227.956 7.38188 228.342 7.673 228.649 8.03776V2.76287H231.434V17.5342H228.929L228.793 16.425C228.481 16.8365 228.076 17.1688 227.612 17.3948C227.147 17.6208 226.636 17.7342 226.12 17.7257C225.548 17.7406 224.981 17.6161 224.468 17.3631C223.955 17.11 223.511 16.736 223.175 16.2733C222.355 15.0836 221.959 13.6532 222.05 12.2114ZM224.827 12.4189C224.778 13.1999 224.955 13.9785 225.337 14.6613C225.49 14.9141 225.707 15.1214 225.967 15.2618C226.226 15.4021 226.519 15.4703 226.814 15.4593C227.192 15.4863 227.569 15.3968 227.894 15.2027C228.22 15.0086 228.478 14.7194 228.633 14.374V10.2563C228.481 9.91358 228.227 9.62581 227.906 9.43177C227.585 9.23772 227.212 9.14673 226.838 9.17099C225.497 9.15503 224.827 10.2376 224.827 12.4189Z" fill="url(#paint8_linear_13988_11638)"/>
<path d="M239.207 17.4939C239.07 17.1977 238.975 16.8832 238.928 16.5602C238.6 16.9291 238.194 17.2212 237.74 17.4157C237.287 17.6102 236.796 17.7023 236.302 17.6854C235.378 17.7172 234.475 17.4011 233.772 16.7996C233.449 16.5254 233.191 16.1825 233.017 15.796C232.843 15.4094 232.758 14.9889 232.767 14.5651C232.742 14.0729 232.841 13.5823 233.056 13.1387C233.271 12.6951 233.594 12.3128 233.996 12.0274C235.056 11.3708 236.294 11.0586 237.539 11.1336H238.816V10.5351C238.836 10.119 238.702 9.71012 238.441 9.38596C238.291 9.23244 238.108 9.11417 237.907 9.03965C237.705 8.96514 237.49 8.93625 237.276 8.95505C236.88 8.93112 236.49 9.05005 236.174 9.2902C236.042 9.40441 235.938 9.54702 235.869 9.70733C235.8 9.86765 235.768 10.0415 235.775 10.2159H232.998C232.997 9.61132 233.193 9.02271 233.557 8.54006C233.966 7.99692 234.519 7.5794 235.153 7.33505C235.878 7.03307 236.658 6.88367 237.443 6.89615C238.546 6.83577 239.632 7.17906 240.5 7.86177C240.879 8.2004 241.177 8.62018 241.372 9.08992C241.567 9.55966 241.653 10.0673 241.625 10.575V15.0838C241.587 15.8534 241.729 16.6212 242.04 17.3263V17.4939H239.207ZM236.909 15.5307C237.303 15.535 237.692 15.4418 238.042 15.2594C238.376 15.1014 238.655 14.8454 238.84 14.5252V12.7377H237.802C236.406 12.7377 235.672 13.2165 235.576 14.1821V14.3417C235.571 14.5022 235.602 14.6617 235.665 14.8092C235.728 14.9567 235.823 15.0886 235.943 15.1956C236.212 15.4239 236.556 15.5435 236.909 15.5307Z" fill="url(#paint9_linear_13988_11638)"/>
<path d="M247.092 13.5596L249.015 7.08763H251.999L247.81 19.1058L247.578 19.6564C247.34 20.2716 246.916 20.7977 246.366 21.1621C245.815 21.5265 245.166 21.7114 244.506 21.6914C244.09 21.6925 243.675 21.6306 243.277 21.5079V19.4011H243.7C244.107 19.4299 244.513 19.3442 244.873 19.1537C245.159 18.961 245.374 18.681 245.488 18.3557L245.815 17.5018L242.168 7.0717H245.16L247.092 13.5596Z" fill="url(#paint10_linear_13988_11638)"/>
<path d="M27.3244 7.128C27.0687 7.12589 26.8151 7.17421 26.5781 7.27012C26.341 7.36604 26.1252 7.50768 25.9429 7.68701C25.7606 7.86634 25.6154 8.07984 25.5156 8.31528C25.4158 8.55073 25.3634 8.80353 25.3613 9.05924V17.231H27.3244V9.05924H31.9929V7.128H27.3244Z" fill="#8257E5"/>
<path d="M43.6862 12.1638V9.04356C43.6841 8.78786 43.6317 8.53505 43.5319 8.29961C43.4321 8.06417 43.2869 7.85071 43.1046 7.67138C42.9223 7.49205 42.7065 7.35036 42.4694 7.25445C42.2324 7.15853 41.9788 7.11027 41.7231 7.11237H35.3868C35.1315 7.11027 34.8782 7.15858 34.6416 7.2546C34.405 7.35061 34.1897 7.49244 34.008 7.67187C33.8264 7.85131 33.682 8.06485 33.5831 8.30024C33.4842 8.53564 33.4327 8.78823 33.4316 9.04356V15.2841C33.4327 15.5394 33.4842 15.792 33.5831 16.0274C33.682 16.2628 33.8264 16.4763 34.008 16.6558C34.1897 16.8352 34.405 16.977 34.6416 17.0731C34.8782 17.1691 35.1315 17.2174 35.3868 17.2153H41.7231C41.9788 17.2174 42.2324 17.1691 42.4694 17.0732C42.7065 16.9773 42.9223 16.8356 43.1046 16.6563C43.2869 16.4769 43.4321 16.2635 43.5319 16.028C43.6317 15.7926 43.6841 15.5398 43.6862 15.2841V12.1638ZM41.7231 12.1638V15.2841H35.3868V9.04356H41.7231V12.1638Z" fill="#8257E5"/>
<path d="M47.5881 7.128C47.3324 7.12589 47.0788 7.17421 46.8418 7.27012C46.6047 7.36604 46.3889 7.50768 46.2066 7.68701C46.0243 7.86634 45.8791 8.07984 45.7793 8.31528C45.6795 8.55073 45.6271 8.80353 45.625 9.05924V15.2998C45.6271 15.5555 45.6795 15.8082 45.7793 16.0437C45.8791 16.2791 46.0243 16.4926 46.2066 16.6719C46.3889 16.8513 46.6047 16.993 46.8418 17.0889C47.0788 17.1848 47.3324 17.2331 47.5881 17.231L54.483 17.1432V15.2998H47.5881V9.05924H54.483V7.2238L47.5881 7.128Z" fill="#8257E5"/>
<path d="M65.7344 7.12793H63.077L59.1986 11.1979H58.4006V7.12793H56.4375V17.2149H58.4006V13.137H59.5577L63.5957 17.2229H66.293L61.1059 11.948L65.7344 7.12793Z" fill="#8257E5"/>
<path d="M68.6565 15.2839V13.1372L76.9479 13.0415V9.05138C76.9458 8.79567 76.8934 8.54287 76.7936 8.30742C76.6938 8.07198 76.5486 7.85853 76.3663 7.6792C76.184 7.49987 75.9682 7.35818 75.7311 7.26226C75.4941 7.16635 75.2405 7.11808 74.9848 7.12018H68.6565C68.4008 7.11808 68.1472 7.16635 67.9101 7.26226C67.6731 7.35818 67.4572 7.49987 67.2749 7.6792C67.0926 7.85853 66.9475 8.07198 66.8477 8.30742C66.7479 8.54287 66.6954 8.79567 66.6934 9.05138V15.2919C66.6954 15.5476 66.7479 15.8004 66.8477 16.0359C66.9475 16.2713 67.0926 16.4847 67.2749 16.6641C67.4572 16.8434 67.6731 16.9851 67.9101 17.081C68.1472 17.1769 68.4008 17.2252 68.6565 17.2231L76.9479 17.1273V15.2919L68.6565 15.2839ZM68.6565 9.04339H74.9848V11.1981H68.6565V9.04339Z" fill="#8257E5"/>
<path d="M81.9016 4.1748H81.1036L79.8985 5.64313V7.11151H78.4062V9.04271H79.8985V15.2992C79.8996 15.5545 79.9511 15.8071 80.05 16.0425C80.1489 16.2779 80.2933 16.4915 80.475 16.6709C80.6567 16.8503 80.8719 16.9921 81.1085 17.0881C81.3451 17.1841 81.5984 17.2325 81.8537 17.2304L85.0458 17.1346V15.2992H81.8537V9.01879L85.3091 8.96292V7.12744H81.9016V4.1748Z" fill="#8257E5"/>
<path d="M95.6451 13.1372C95.643 12.8815 95.5906 12.6287 95.4908 12.3933C95.391 12.1578 95.2458 11.9444 95.0635 11.7651C94.8812 11.5857 94.6654 11.444 94.4284 11.3481C94.1914 11.2522 93.9377 11.2039 93.682 11.206H88.7423V9.05138H95.6451V7.20795L88.7423 7.12018C88.4869 7.11808 88.2337 7.1664 87.9971 7.26241C87.7605 7.35842 87.5452 7.5002 87.3636 7.67963C87.1819 7.85907 87.0375 8.07261 86.9385 8.30801C86.8396 8.5434 86.7882 8.79604 86.7871 9.05138V11.206C86.7913 11.7211 86.9994 12.2134 87.3658 12.5754C87.7323 12.9373 88.2272 13.1394 88.7423 13.1372H93.682V15.2919H86.7871V17.1273L93.682 17.2231C93.9377 17.2252 94.1914 17.1769 94.4284 17.081C94.6654 16.9851 94.8812 16.8434 95.0635 16.6641C95.2458 16.4847 95.391 16.2713 95.4908 16.0359C95.5906 15.8004 95.643 15.5476 95.6451 15.2919V13.1372Z" fill="#8257E5"/>
<path d="M105.844 7.12801H99.5159C99.2602 7.1259 99.0065 7.17422 98.7695 7.27014C98.5324 7.36605 98.3166 7.50769 98.1343 7.68702C97.9521 7.86635 97.8068 8.07985 97.707 8.3153C97.6073 8.55074 97.5548 8.80354 97.5527 9.05925V15.2998C97.5548 15.5555 97.6073 15.8082 97.707 16.0437C97.8068 16.2791 97.9521 16.4926 98.1343 16.672C98.3166 16.8513 98.5324 16.993 98.7695 17.0889C99.0065 17.1848 99.2602 17.2331 99.5159 17.231L107.839 17.1272V15.2838H99.5478V13.1371L107.839 13.0494V9.05925C107.839 8.80018 107.787 8.54373 107.686 8.30517C107.585 8.0666 107.437 7.8508 107.251 7.67061C107.065 7.49042 106.845 7.34951 106.603 7.2563C106.361 7.16309 106.103 7.11944 105.844 7.12801V7.12801ZM105.844 11.1979H99.5159V9.04328H105.844V11.1979Z" fill="#8257E5"/>
<path d="M118.092 7.12793L109.801 7.22374V9.05917H118.092V11.2138L109.801 11.3096V15.2997C109.802 15.555 109.853 15.8076 109.952 16.043C110.051 16.2784 110.196 16.492 110.377 16.6714C110.559 16.8508 110.774 16.9926 111.011 17.0886C111.247 17.1846 111.501 17.233 111.756 17.2309H118.092C118.347 17.233 118.601 17.1846 118.837 17.0886C119.074 16.9926 119.289 16.8508 119.471 16.6714C119.653 16.492 119.797 16.2784 119.896 16.043C119.995 15.8076 120.046 15.555 120.047 15.2997V9.05917C120.041 8.54479 119.832 8.05361 119.466 7.69211C119.1 7.33061 118.607 7.12789 118.092 7.12793ZM118.092 15.2837H111.756V13.137H118.092V15.2837Z" fill="#8257E5"/>
<path d="M124.995 9.00317L128.443 8.9473V7.11186H124.995V4.15918H124.197L122.992 5.62756V7.0879H121.5V9.02708H122.992V15.2916C122.994 15.5473 123.047 15.8001 123.147 16.0355C123.246 16.271 123.392 16.4844 123.574 16.6637C123.756 16.8431 123.972 16.9848 124.209 17.0807C124.446 17.1766 124.7 17.2249 124.955 17.2228L128.148 17.127V15.2916H124.955L124.995 9.00317Z" fill="#8257E5"/>
<path d="M20.1833 0.520521L16.9912 0.0496678C16.9123 0.0390292 16.8324 0.0590257 16.7678 0.105535L15.4112 1.8532C15.3674 1.90716 15.3379 1.97124 15.3254 2.03955C15.3128 2.10787 15.3176 2.17824 15.3394 2.24422C15.3463 2.27355 15.3458 2.30417 15.3381 2.33331C15.3304 2.36245 15.3157 2.38925 15.2952 2.41134C15.2747 2.43342 15.2491 2.45012 15.2206 2.45995C15.1921 2.46978 15.1616 2.47243 15.1319 2.46769L14.0146 2.22829C13.9283 2.20722 13.8378 2.21186 13.7541 2.24164C13.6705 2.27142 13.5974 2.325 13.5438 2.39585L9.13873 7.98199C9.0989 8.03667 9.04151 8.07605 8.97614 8.09348C8.91078 8.11091 8.84138 8.10534 8.77961 8.07774L7.0958 7.3276C7.02843 7.28675 6.95112 7.26516 6.87233 7.26516C6.79354 7.26516 6.71628 7.28675 6.64891 7.3276L5.80301 7.9022C5.72997 7.94346 5.64751 7.96513 5.56362 7.96513C5.47972 7.96513 5.39722 7.94346 5.32417 7.9022L4.91722 7.69471C4.85442 7.66552 4.78599 7.65029 4.71674 7.6501C4.64749 7.6499 4.57903 7.66476 4.51607 7.69359C4.4531 7.72242 4.39717 7.76456 4.35207 7.81711C4.30697 7.86966 4.27379 7.93135 4.25485 7.99796L3.9516 9.31471C3.91515 9.46695 3.92888 9.62686 3.99071 9.77066C4.05255 9.91447 4.15918 10.0345 4.29474 10.1127L4.93315 10.5038L6.98407 11.7487L7.98159 12.3552C8.11972 12.4324 8.27767 12.4667 8.4354 12.4539C8.59312 12.4412 8.74349 12.3818 8.86738 12.2833L10.5512 10.8389C10.6165 10.7802 10.6985 10.7433 10.7857 10.7333C10.8729 10.7233 10.9611 10.7407 11.038 10.783L11.5488 11.0384C11.6306 11.0819 11.724 11.0983 11.8158 11.0854C11.9075 11.0725 11.9928 11.031 12.0595 10.9666L12.9054 10.1686C12.97 10.1094 13.051 10.0708 13.1377 10.058C13.2245 10.0452 13.3132 10.0587 13.3922 10.0968L14.661 10.6713C14.7523 10.7162 14.8562 10.728 14.9552 10.7047C15.0542 10.6814 15.142 10.6245 15.2037 10.5436L15.7862 9.80149L20.2152 4.21536C20.263 4.15459 20.2946 4.08264 20.3068 4.0063C20.3191 3.92997 20.3116 3.85176 20.2853 3.77909C20.2589 3.70641 20.2145 3.64166 20.1562 3.59093C20.0978 3.5402 20.0275 3.50514 19.9519 3.48913L18.9703 3.26571C18.9233 3.25817 18.8791 3.23801 18.8426 3.20736C18.8061 3.17671 18.7786 3.13673 18.763 3.09168C18.7475 3.04663 18.7445 2.99819 18.7543 2.95155C18.7641 2.9049 18.7863 2.86179 18.8187 2.82681L20.3509 0.943446C20.3718 0.905358 20.3841 0.863148 20.3868 0.819778C20.3895 0.776409 20.3826 0.732953 20.3666 0.692555C20.3506 0.652157 20.3259 0.615822 20.2942 0.586081C20.2625 0.55634 20.2246 0.533946 20.1833 0.520521V0.520521Z" fill="#8257E5"/>
<path d="M5.57191 11.7723C5.55327 11.7603 5.53129 11.7546 5.50918 11.7561C5.48706 11.7575 5.46597 11.766 5.44902 11.7802C5.43207 11.7945 5.42015 11.8139 5.41498 11.8354C5.40981 11.857 5.41166 11.8796 5.42029 11.9L5.89114 13.1289C5.9189 13.22 5.9189 13.3172 5.89114 13.4083L5.47615 15.0043C5.46344 15.0551 5.46574 15.1086 5.48273 15.1581C5.49972 15.2077 5.53069 15.2513 5.57191 15.2836L6.75301 16.1934C6.80455 16.2328 6.86763 16.2542 6.93255 16.2542C6.99746 16.2542 7.0606 16.2328 7.11213 16.1934L8.35704 15.116C8.43113 15.0625 8.51528 15.0245 8.60443 15.0043L10.0169 14.8527C10.0376 14.8444 10.0554 14.8301 10.0679 14.8116C10.0805 14.7931 10.0872 14.7713 10.0872 14.7489C10.0872 14.7266 10.0805 14.7047 10.0679 14.6863C10.0554 14.6678 10.0376 14.6535 10.0169 14.6452L5.57191 11.7723Z" fill="#8257E5"/>
<path d="M5.15692 15.8984C5.11773 15.8682 5.07141 15.8488 5.02248 15.8418C4.97356 15.8348 4.92364 15.8405 4.87758 15.8584L3.88006 16.3452C3.82224 16.3721 3.77466 16.4168 3.74441 16.4729L1.61371 21.6521V21.6919C1.61371 21.6919 1.65359 21.6919 1.69349 21.6919L2.18027 21.5004H2.23614C2.23614 21.5004 2.27604 21.5563 2.23614 21.5803L0.711941 24.0461C0.708273 24.0513 0.705677 24.0573 0.704294 24.0635C0.70291 24.0697 0.702744 24.0762 0.703855 24.0825C0.704967 24.0888 0.707334 24.0948 0.710772 24.1002C0.714209 24.1056 0.718683 24.1103 0.723923 24.114C0.729162 24.1176 0.735066 24.1202 0.741311 24.1216C0.747556 24.123 0.754008 24.1231 0.760307 24.122C0.766606 24.1209 0.772594 24.1186 0.777988 24.1151C0.783382 24.1117 0.788055 24.1072 0.791723 24.102L6.32998 18.7233C6.378 18.673 6.40874 18.6088 6.41775 18.5398L6.53747 17.1273C6.53779 17.0855 6.52946 17.044 6.51298 17.0056C6.49649 16.9671 6.47223 16.9324 6.44172 16.9038L5.15692 15.8984Z" fill="#8257E5"/>
<path d="M141.211 3.34473V20.8692" stroke="#8257E5" stroke-miterlimit="10"/>
<defs>
<linearGradient id="paint0_linear_13988_11638" x1="153.979" y1="18.3666" x2="252.007" y2="18.0457" gradientUnits="userSpaceOnUse">
<stop stop-color="#8257E5"/>
<stop offset="1" stop-color="#D73628"/>
</linearGradient>
<linearGradient id="paint1_linear_13988_11638" x1="153.979" y1="18.3666" x2="252.007" y2="18.0457" gradientUnits="userSpaceOnUse">
<stop stop-color="#8257E5"/>
<stop offset="1" stop-color="#D73628"/>
</linearGradient>
<linearGradient id="paint2_linear_13988_11638" x1="153.979" y1="18.3666" x2="252.007" y2="18.0457" gradientUnits="userSpaceOnUse">
<stop stop-color="#8257E5"/>
<stop offset="1" stop-color="#D73628"/>
</linearGradient>
<linearGradient id="paint3_linear_13988_11638" x1="153.979" y1="18.3666" x2="252.007" y2="18.0457" gradientUnits="userSpaceOnUse">
<stop stop-color="#8257E5"/>
<stop offset="1" stop-color="#D73628"/>
</linearGradient>
<linearGradient id="paint4_linear_13988_11638" x1="153.979" y1="18.3666" x2="252.007" y2="18.0457" gradientUnits="userSpaceOnUse">
<stop stop-color="#8257E5"/>
<stop offset="1" stop-color="#D73628"/>
</linearGradient>
<linearGradient id="paint5_linear_13988_11638" x1="153.979" y1="18.3666" x2="252.007" y2="18.0457" gradientUnits="userSpaceOnUse">
<stop stop-color="#8257E5"/>
<stop offset="1" stop-color="#D73628"/>
</linearGradient>
<linearGradient id="paint6_linear_13988_11638" x1="153.979" y1="18.3666" x2="252.007" y2="18.0457" gradientUnits="userSpaceOnUse">
<stop stop-color="#8257E5"/>
<stop offset="1" stop-color="#D73628"/>
</linearGradient>
<linearGradient id="paint7_linear_13988_11638" x1="153.979" y1="18.3666" x2="252.007" y2="18.0457" gradientUnits="userSpaceOnUse">
<stop stop-color="#8257E5"/>
<stop offset="1" stop-color="#D73628"/>
</linearGradient>
<linearGradient id="paint8_linear_13988_11638" x1="153.979" y1="18.3666" x2="252.007" y2="18.0457" gradientUnits="userSpaceOnUse">
<stop stop-color="#8257E5"/>
<stop offset="1" stop-color="#D73628"/>
</linearGradient>
<linearGradient id="paint9_linear_13988_11638" x1="153.979" y1="18.3666" x2="252.007" y2="18.0457" gradientUnits="userSpaceOnUse">
<stop stop-color="#8257E5"/>
<stop offset="1" stop-color="#D73628"/>
</linearGradient>
<linearGradient id="paint10_linear_13988_11638" x1="153.979" y1="18.3666" x2="252.007" y2="18.0457" gradientUnits="userSpaceOnUse">
<stop stop-color="#8257E5"/>
<stop offset="1" stop-color="#D73628"/>
</linearGradient>
</defs>
</svg>
